new Crispy Bold-Narrow.ufo
<glyph name="exclam" format="2">
  <advance width="212"/>
  <unicode hex="0021"/>
  <outline>
    <contour>
      <point x="31" y="226" type="line" identifier="1m237t4hyw"/>
      <point x="194" y="226" type="line" identifier="S4rO5KuHiL"/>
      <point x="215" y="283" type="line"/>
      <point x="215" y="1600" type="line" identifier="zfocDyDTCM"/>
      <point x="52" y="1600" type="line" identifier="v7N4yg5XNk"/>
      <point x="31" y="1549" type="line"/>
    </contour>
    <component base="period" xOffset="1"/>
  </outline>
</glyph>
<glyph name="comma" format="2">
  <advance width="217"/>
  <unicode hex="002C"/>
  <outline>
    <contour>
      <point x="136" y="-177" type="line"/>
      <point x="189" y="0" type="line"/>
      <point x="189" y="144" type="line"/>
      <point x="27" y="144" type="line"/>
      <point x="6" y="109" type="line"/>
      <point x="6" y="0" type="line"/>
      <point x="109" y="0" type="line"/>
      <point x="109" y="-177" type="line"/>
    </contour>
  </outline>
</glyph>
<glyph name="period" format="2">
  <advance width="245"/>
  <unicode hex="002E"/>
  <outline>
    <contour>
      <point x="196" y="0" type="line" identifier="1m237t4hyw"/>
      <point x="217" y="40" type="line" identifier="v7N4yg5XNk"/>
      <point x="217" y="171" type="line"/>
      <point x="52" y="171" type="line" identifier="zfocDyDTCM"/>
      <point x="30" y="131" type="line"/>
      <point x="30" y="0" type="line" identifier="S4rO5KuHiL"/>
    </contour>
  </outline>
</glyph>
<glyph name="four" format="2">
  <advance width="561"/>
  <unicode hex="0034"/>
  <outline>
    <contour>
      <point x="307" y="0" type="line"/>
      <point x="490" y="0" type="line"/>
      <point x="490" y="726" type="line"/>
      <point x="532" y="726" type="line"/>
      <point x="532" y="875" type="line"/>
      <point x="490" y="875" type="line"/>
      <point x="490" y="1600" type="line"/>
      <point x="307" y="1600" type="line"/>
      <point x="307" y="875" type="line"/>
      <point x="211" y="875" type="line"/>
      <point x="211" y="945" type="line"/>
      <point x="211" y="1600" type="line"/>
      <point x="28" y="1600" type="line"/>
      <point x="28" y="944" type="line"/>
      <point x="28" y="726" type="line"/>
      <point x="307" y="726" type="line"/>
    </contour>
  </outline>
</glyph>
<glyph name="six" format="2">
  <advance width="531"/>
  <unicode hex="0036"/>
  <outline>
    <contour>
      <point x="28" y="0" type="line" identifier="uiw6aBUf4P"/>
      <point x="503" y="0" type="line" identifier="jtYkxiUX6G"/>
      <point x="503" y="859" type="line" identifier="2G5L37c87I"/>
      <point x="211" y="859" type="line"/>
      <point x="211" y="1312" type="line"/>
      <point x="248" y="1451" type="line"/>
      <point x="320" y="1451" type="line"/>
      <point x="320" y="1110" type="line"/>
      <point x="503" y="1110" type="line" identifier="Wuidbv6mUe"/>
      <point x="503" y="1600" type="line" identifier="oGvEEuxnYv"/>
      <point x="117" y="1600" type="line" identifier="xR3pEHbMJx"/>
      <point x="28" y="1320" type="line" identifier="KnMArb0tv8"/>
    </contour>
    <contour>
      <point x="320" y="710" type="line"/>
      <point x="320" y="149" type="line"/>
      <point x="211" y="149" type="line"/>
      <point x="211" y="710" type="line"/>
    </contour>
  </outline>
</glyph>
<glyph name="seven" format="2">
  <advance width="533"/>
  <unicode hex="0037"/>
  <outline>
    <contour>
      <point x="176" y="0" type="line"/>
      <point x="359" y="0" type="line" identifier="PiPrv7Kcoy"/>
      <point x="505" y="1316" type="line" identifier="PkvwNC9Tx1"/>
      <point x="505" y="1600" type="line" identifier="tgqM27bPOm"/>
      <point x="28" y="1600" type="line" identifier="36ml4xRICt"/>
      <point x="28" y="1105" type="line" identifier="aaDZsh5Mah"/>
      <point x="211" y="1105" type="line"/>
      <point x="211" y="1451" type="line"/>
      <point x="321" y="1451" type="line"/>
      <point x="321" y="1340" type="line"/>
    </contour>
  </outline>
</glyph>
<glyph name="nine" format="2">
  <advance width="550"/>
  <unicode hex="0039"/>
  <outline>
    <contour>
      <point x="522" y="1600" type="line" identifier="uiw6aBUf4P"/>
      <point x="28" y="1600" type="line" identifier="jtYkxiUX6G"/>
      <point x="28" y="741" type="line" identifier="2G5L37c87I"/>
      <point x="339" y="741" type="line"/>
      <point x="339" y="149" type="line"/>
      <point x="212" y="149" type="line"/>
      <point x="212" y="492" type="line"/>
      <point x="29" y="492" type="line" identifier="Wuidbv6mUe"/>
      <point x="29" y="0" type="line" identifier="oGvEEuxnYv"/>
      <point x="522" y="0" type="line" identifier="xR3pEHbMJx"/>
    </contour>
    <contour>
      <point x="211" y="890" type="line"/>
      <point x="211" y="1451" type="line"/>
      <point x="339" y="1451" type="line"/>
      <point x="339" y="890" type="line"/>
    </contour>
  </outline>
</glyph>
<glyph name="A" format="2">
  <advance width="541"/>
  <unicode hex="0041"/>
  <outline>
    <contour>
      <point x="28" y="0" type="line" smooth="yes" identifier="jFq8ta4UUc"/>
      <point x="211" y="0" type="line" smooth="yes" identifier="dQz4RxYhG4"/>
      <point x="211" y="711" type="line" smooth="yes" identifier="viYRWe5UN7"/>
      <point x="322" y="711" type="line" smooth="yes" identifier="QVexAlbAcl"/>
      <point x="322" y="0" type="line" smooth="yes" identifier="ZgsCdxNJRW"/>
      <point x="505" y="0" type="line" smooth="yes" identifier="kpn4Kw9J0C"/>
      <point x="505" y="1600" type="line" smooth="yes" identifier="OBZ5Ayed7M"/>
      <point x="125" y="1600" type="line" smooth="yes" identifier="iDT0uyhKrn"/>
      <point x="28" y="1286" type="line" smooth="yes" identifier="dqVr87m3uJ"/>
    </contour>
    <contour>
      <point x="211" y="862" type="line" smooth="yes" identifier="IIRC9Wy7kQ"/>
      <point x="211" y="1279" type="line" smooth="yes" identifier="VufvPdJ075"/>
      <point x="258" y="1451" type="line" smooth="yes" identifier="FsYtJ2vFnp"/>
      <point x="322" y="1451" type="line" smooth="yes" identifier="tUsW8L7b0y"/>
      <point x="322" y="862" type="line" smooth="yes" identifier="eTe9B4y76W"/>
    </contour>
  </outline>
</glyph>
<glyph name="M" format="2">
  <advance width="823"/>
  <unicode hex="004D"/>
  <outline>
    <contour>
      <point x="280" y="358" type="line" identifier="0Dn4Xpf57M"/>
      <point x="203" y="1451" type="line"/>
      <point x="190" y="1451" type="line"/>
      <point x="190" y="0" type="line"/>
      <point x="36" y="0" type="line"/>
      <point x="36" y="1600" type="line"/>
      <point x="342" y="1600" type="line"/>
      <point x="404" y="495" type="line"/>
      <point x="417" y="495" type="line" identifier="9aKZPM0HPh"/>
      <point x="481" y="1600" type="line"/>
      <point x="787" y="1600" type="line"/>
      <point x="787" y="0" type="line"/>
      <point x="633" y="0" type="line"/>
      <point x="633" y="1451" type="line"/>
      <point x="621" y="1451" type="line"/>
      <point x="541" y="358" type="line" identifier="spdoeeCFft"/>
    </contour>
  </outline>
</glyph>
<glyph name="S" format="2">
  <advance width="528"/>
  <unicode hex="0053"/>
  <outline>
    <contour>
      <point x="29" y="0" type="line" identifier="09VlJ0BjUX"/>
      <point x="414" y="0" type="line" identifier="EagWihqFM8"/>
      <point x="500" y="270" type="line"/>
      <point x="500" y="879" type="line" identifier="KfNuQA7eZe"/>
      <point x="210" y="879" type="line" identifier="At364YZFEy"/>
      <point x="210" y="1306" type="line"/>
      <point x="245" y="1459" type="line"/>
      <point x="312" y="1459" type="line" identifier="3ZUkG35meB"/>
      <point x="312" y="1131" type="line" identifier="DTOJhFIl15"/>
      <point x="495" y="1131" type="line" identifier="9KDcrfQ5Ui"/>
      <point x="495" y="1600" type="line" identifier="SaF9ojRFrW"/>
      <point x="116" y="1600" type="line"/>
      <point x="29" y="1313" type="line"/>
      <point x="29" y="722" type="line" identifier="3sQ8t8BZ6b"/>
      <point x="316" y="722" type="line" identifier="yiV6OCBLHg"/>
      <point x="316" y="277" type="line"/>
      <point x="282" y="144" type="line" identifier="9kdl9SYsn8"/>
      <point x="212" y="144" type="line" identifier="yZDWuX8LLe"/>
      <point x="212" y="475" type="line" identifier="jYb9001DTm"/>
      <point x="29" y="475" type="line" identifier="ho4DrS0rdW"/>
    </contour>
  </outline>
</glyph>
<glyph name="W" format="2">
  <advance width="823"/>
  <unicode hex="0057"/>
  <outline>
    <contour>
      <point x="280" y="1242" type="line" identifier="0Dn4Xpf57M"/>
      <point x="203" y="149" type="line"/>
      <point x="190" y="149" type="line"/>
      <point x="190" y="1600" type="line"/>
      <point x="36" y="1600" type="line"/>
      <point x="36" y="0" type="line"/>
      <point x="342" y="0" type="line"/>
      <point x="404" y="1105" type="line"/>
      <point x="417" y="1105" type="line" identifier="9aKZPM0HPh"/>
      <point x="481" y="0" type="line"/>
      <point x="787" y="0" type="line"/>
      <point x="787" y="1600" type="line"/>
      <point x="633" y="1600" type="line"/>
      <point x="633" y="149" type="line"/>
      <point x="621" y="149" type="line"/>
      <point x="541" y="1242" type="line" identifier="spdoeeCFft"/>
    </contour>
  </outline>
</glyph>
<glyph name="X" format="2">
  <advance width="534"/>
  <unicode hex="0058"/>
  <outline>
    <contour>
      <point x="28" y="0" type="line"/>
      <point x="211" y="0" type="line"/>
      <point x="211" y="726" type="line"/>
      <point x="257" y="725" type="line"/>
      <point x="275" y="725" type="line"/>
      <point x="323" y="678" type="line"/>
      <point x="323" y="0" type="line"/>
      <point x="506" y="0" type="line"/>
      <point x="506" y="703" type="line"/>
      <point x="396" y="790" type="line"/>
      <point x="396" y="800" type="line"/>
      <point x="502" y="800" type="line"/>
      <point x="502" y="1600" type="line"/>
      <point x="319" y="1600" type="line"/>
      <point x="319" y="875" type="line"/>
      <point x="275" y="875" type="line"/>
      <point x="257" y="875" type="line"/>
      <point x="215" y="919" type="line"/>
      <point x="215" y="1600" type="line"/>
      <point x="32" y="1600" type="line"/>
      <point x="32" y="897" type="line"/>
      <point x="138" y="812" type="line"/>
      <point x="138" y="802" type="line"/>
      <point x="28" y="802" type="line"/>
    </contour>
  </outline>
</glyph>
<glyph name="B.skinnymiddle" format="2">
  <advance width="545"/>
  <outline>
    <contour>
      <point x="36" y="0" type="line" identifier="hvY9r8RmLr"/>
      <point x="430" y="0" type="line" identifier="9QFpw7nfq7"/>
      <point x="517" y="279" type="line"/>
      <point x="517" y="873" type="line" identifier="543PerILpr"/>
      <point x="410" y="873" type="line" identifier="zhomauHW30"/>
      <point x="485" y="1059" type="line"/>
      <point x="485" y="1600" type="line" identifier="FaP204GrdB"/>
      <point x="36" y="1600" type="line" identifier="JEev70GAj6"/>
    </contour>
    <contour>
      <point x="219" y="149" type="line" identifier="jaMSiLrCua"/>
      <point x="219" y="724" type="line" identifier="XSrxNd2axx"/>
      <point x="334" y="724" type="line" identifier="lsRGatjQja"/>
      <point x="334" y="285" type="line"/>
      <point x="299" y="149" type="line" identifier="xhlDJ3CjD5"/>
    </contour>
    <contour>
      <point x="219" y="873" type="line" identifier="By7dfMihfe"/>
      <point x="219" y="1451" type="line" identifier="1p5hKrurVy"/>
      <point x="319" y="1451" type="line" identifier="Qby8aMtF2X"/>
      <point x="319" y="1046" type="line"/>
      <point x="245" y="873" type="line" identifier="xpxyvIzPoc"/>
    </contour>
  </outline>
</glyph>
<glyph name="C.wide" format="2">
  <advance width="559"/>
  <outline>
    <contour>
      <point x="39" y="0" type="line" identifier="7lPhzTnk2Z"/>
      <point x="531" y="0" type="line" identifier="qJVLZGnkwh"/>
      <point x="531" y="149" type="line" identifier="Y750RHTvDj"/>
      <point x="222" y="149" type="line" identifier="L2LsGnXiZ2"/>
      <point x="222" y="1179" type="line" identifier="sUWsr03vF4"/>
      <point x="267" y="1451" type="line" identifier="dbOUe6OhxL"/>
      <point x="530" y="1451" type="line" identifier="5BjRbcud80"/>
      <point x="530" y="1600" type="line" identifier="9eJelv8BOw"/>
      <point x="110" y="1600" type="line" identifier="lfZev3ICaC"/>
      <point x="39" y="1191" type="line" identifier="V1EWIdPahq"/>
    </contour>
  </outline>
</glyph>
<glyph name="E.wide" format="2">
  <advance width="435"/>
  <outline>
    <contour>
      <point x="36" y="0" type="line" identifier="fZynkQ4XHB"/>
      <point x="399" y="0" type="line" identifier="FAQNpgUPxV"/>
      <point x="399" y="143" type="line" identifier="5cgTYOhATF"/>
      <point x="219" y="143" type="line" identifier="bWs42DaCgU"/>
      <point x="219" y="732" type="line" identifier="VtD2aADJmn"/>
      <point x="376" y="732" type="line" identifier="PpbsFdHAnS"/>
      <point x="376" y="868" type="line" identifier="8WuC5p8Ax5"/>
      <point x="219" y="868" type="line" identifier="m39IWn9ntA"/>
      <point x="219" y="1460" type="line" identifier="gQ21I4SHQg"/>
      <point x="398" y="1460" type="line" identifier="eqNb2VTwYs"/>
      <point x="398" y="1600" type="line" identifier="qYRmo14Il5"/>
      <point x="36" y="1600" type="line" identifier="HmJIcnLWfC"/>
    </contour>
  </outline>
</glyph>
<glyph name="E.wideskinny" format="2">
  <advance width="436"/>
  <outline>
    <contour>
      <point x="38" y="0" type="line" identifier="fZynkQ4XHB"/>
      <point x="401" y="0" type="line" identifier="FAQNpgUPxV"/>
      <point x="401" y="143" type="line" identifier="5cgTYOhATF"/>
      <point x="221" y="143" type="line" identifier="bWs42DaCgU"/>
      <point x="221" y="732" type="line" identifier="VtD2aADJmn"/>
      <point x="377" y="732" type="line" identifier="PpbsFdHAnS"/>
      <point x="377" y="868" type="line" identifier="8WuC5p8Ax5"/>
      <point x="221" y="868" type="line" identifier="m39IWn9ntA"/>
      <point x="221" y="1460" type="line" identifier="gQ21I4SHQg"/>
      <point x="399" y="1460" type="line" identifier="eqNb2VTwYs"/>
      <point x="399" y="1600" type="line" identifier="qYRmo14Il5"/>
      <point x="38" y="1600" type="line" identifier="HmJIcnLWfC"/>
    </contour>
  </outline>
</glyph>
<glyph name="G.wideskinny" format="2">
  <advance width="554"/>
  <outline>
    <contour>
      <point x="28" y="0" type="line" identifier="7lPhzTnk2Z"/>
      <point x="522" y="0" type="line" identifier="qJVLZGnkwh"/>
      <point x="522" y="838" type="line" identifier="uek1NNj7De"/>
      <point x="270" y="838" type="line" identifier="qcvimxjndX"/>
      <point x="270" y="717" type="line" identifier="EARaY3Su65"/>
      <point x="340" y="717" type="line" identifier="4m6dHLVhZq"/>
      <point x="340" y="149" type="line" identifier="Y750RHTvDj"/>
      <point x="211" y="149" type="line" identifier="L2LsGnXiZ2"/>
      <point x="211" y="1202" type="line" identifier="sUWsr03vF4"/>
      <point x="251" y="1451" type="line" identifier="dbOUe6OhxL"/>
      <point x="521" y="1451" type="line" identifier="5BjRbcud80"/>
      <point x="521" y="1600" type="line" identifier="9eJelv8BOw"/>
      <point x="87" y="1600" type="line" identifier="lfZev3ICaC"/>
      <point x="28" y="1208" type="line" identifier="V1EWIdPahq"/>
    </contour>
  </outline>
</glyph>
<glyph name="M.narrow" format="2">
  <advance width="808"/>
  <outline>
    <contour>
      <point x="589" y="0" type="line" smooth="yes" identifier="12Pyby1xY2"/>
      <point x="772" y="0" type="line" smooth="yes" identifier="5LJg4ajoG6"/>
      <point x="772" y="1600" type="line" smooth="yes" identifier="ZqTZqAY3uY"/>
      <point x="95" y="1600" type="line" smooth="yes" identifier="R4lklfJsHA"/>
      <point x="28" y="1319" type="line" smooth="yes" identifier="7g7f8Wu7K4"/>
      <point x="28" y="0" type="line" smooth="yes" identifier="RTOJW56qXy"/>
      <point x="211" y="0" type="line" identifier="JfSFAkWGZC"/>
      <point x="211" y="1282" type="line" smooth="yes" identifier="WWvGwSpq0g"/>
      <point x="250" y="1451" type="line" smooth="yes" identifier="oee4nqI8Wl"/>
      <point x="310" y="1451" type="line" identifier="Ljn2lpvpG8"/>
      <point x="310" y="0" type="line" smooth="yes"/>
      <point x="493" y="0" type="line"/>
      <point x="493" y="1451" type="line" identifier="GlWB6PG54Z"/>
      <point x="589" y="1451" type="line" identifier="iqeTRv7HXg"/>
    </contour>
  </outline>
</glyph>
<glyph name="N.wide" format="2">
  <advance width="693"/>
  <outline>
    <contour>
      <point x="38" y="0" type="line" identifier="CkwYPPvJLv"/>
      <point x="221" y="0" type="line" identifier="oHTJsN7drZ"/>
      <point x="221" y="1397" type="line" identifier="wfBbYd10Pm"/>
      <point x="237" y="1397" type="line" identifier="MEnBDHq6zU"/>
      <point x="461" y="0" type="line" identifier="3Nbopwznvn"/>
      <point x="658" y="0" type="line" identifier="uKfuudIUvA"/>
      <point x="658" y="1600" type="line" identifier="XRdLFXiM4t"/>
      <point x="474" y="1600" type="line" identifier="MUSJPjCIXg"/>
      <point x="474" y="215" type="line" identifier="VILP20cFmq"/>
      <point x="460" y="215" type="line" identifier="z5b04GDwRN"/>
      <point x="243" y="1600" type="line" identifier="LL64NQ6WBE"/>
      <point x="38" y="1600" type="line" identifier="dzUaaP1sjt"/>
    </contour>
  </outline>
</glyph>
<glyph name="P.wide" format="2">
  <advance width="548"/>
  <outline>
    <contour>
      <point x="37" y="0" type="line" identifier="EG08jqU5fb"/>
      <point x="220" y="0" type="line" identifier="osRzIFK2Cu"/>
      <point x="220" y="659" type="line" identifier="hIFVovVRwe"/>
      <point x="525" y="659" type="line" identifier="Tt6D8zYZmU"/>
      <point x="525" y="1600" type="line" identifier="6xW04auDFu"/>
      <point x="37" y="1600" type="line" identifier="eETO5GBD5v"/>
    </contour>
    <contour>
      <point x="220" y="812" type="line" identifier="PIBVN1PGv1"/>
      <point x="220" y="1451" type="line" identifier="IZIZQr2gYJ"/>
      <point x="341" y="1451" type="line" identifier="2c4LCF1E1R"/>
      <point x="341" y="812" type="line" identifier="1WCnzth1GX"/>
    </contour>
  </outline>
</glyph>
<glyph name="R.wide" format="2">
  <advance width="546"/>
  <outline>
    <contour>
      <point x="324" y="0" type="line"/>
      <point x="507" y="0" type="line"/>
      <point x="431" y="724" type="line"/>
      <point x="261" y="724" type="line"/>
    </contour>
    <contour>
      <point x="36" y="0" type="line" identifier="EG08jqU5fb"/>
      <point x="219" y="0" type="line" identifier="osRzIFK2Cu"/>
      <point x="219" y="718" type="line" identifier="hIFVovVRwe"/>
      <point x="508" y="718" type="line" identifier="Tt6D8zYZmU"/>
      <point x="508" y="1600" type="line" identifier="6xW04auDFu"/>
      <point x="36" y="1600" type="line" identifier="eETO5GBD5v"/>
    </contour>
    <contour>
      <point x="219" y="867" type="line" identifier="PIBVN1PGv1"/>
      <point x="219" y="1451" type="line" identifier="IZIZQr2gYJ"/>
      <point x="325" y="1451" type="line" identifier="2c4LCF1E1R"/>
      <point x="325" y="867" type="line" identifier="1WCnzth1GX"/>
    </contour>
  </outline>
</glyph>
<glyph name="S.wide" format="2">
  <advance width="526"/>
  <outline>
    <contour>
      <point x="30" y="0" type="line" identifier="09VlJ0BjUX"/>
      <point x="432" y="0" type="line" identifier="EagWihqFM8"/>
      <point x="497" y="270" type="line"/>
      <point x="497" y="878" type="line" identifier="KfNuQA7eZe"/>
      <point x="210" y="878" type="line" identifier="At364YZFEy"/>
      <point x="210" y="1306" type="line"/>
      <point x="246" y="1459" type="line"/>
      <point x="495" y="1459" type="line" identifier="3ZUkG35meB"/>
      <point x="495" y="1600" type="line" identifier="SaF9ojRFrW"/>
      <point x="98" y="1600" type="line"/>
      <point x="29" y="1313" type="line"/>
      <point x="29" y="721" type="line" identifier="3sQ8t8BZ6b"/>
      <point x="314" y="721" type="line" identifier="yiV6OCBLHg"/>
      <point x="314" y="277" type="line"/>
      <point x="280" y="144" type="line" identifier="9kdl9SYsn8"/>
      <point x="30" y="144" type="line" identifier="yZDWuX8LLe"/>
    </contour>
  </outline>
</glyph>
<glyph name="S.wideskinny" format="2">
  <advance width="525"/>
  <outline>
    <contour>
      <point x="30" y="0" type="line" identifier="09VlJ0BjUX"/>
      <point x="431" y="0" type="line" identifier="EagWihqFM8"/>
      <point x="496" y="270" type="line"/>
      <point x="496" y="878" type="line" identifier="KfNuQA7eZe"/>
      <point x="209" y="878" type="line" identifier="At364YZFEy"/>
      <point x="209" y="1306" type="line"/>
      <point x="246" y="1459" type="line"/>
      <point x="494" y="1459" type="line" identifier="3ZUkG35meB"/>
      <point x="494" y="1600" type="line" identifier="SaF9ojRFrW"/>
      <point x="98" y="1600" type="line"/>
      <point x="29" y="1313" type="line"/>
      <point x="29" y="721" type="line" identifier="3sQ8t8BZ6b"/>
      <point x="314" y="721" type="line" identifier="yiV6OCBLHg"/>
      <point x="314" y="277" type="line"/>
      <point x="279" y="144" type="line" identifier="9kdl9SYsn8"/>
      <point x="30" y="144" type="line" identifier="yZDWuX8LLe"/>
    </contour>
  </outline>
</glyph>
<glyph name="U.alt" format="2">
  <advance width="560"/>
  <outline>
    <contour>
      <point x="328" y="1600" type="line" smooth="yes"/>
      <point x="328" y="149" type="line"/>
      <point x="217" y="149" type="line" smooth="yes"/>
      <point x="217" y="1600" type="line"/>
      <point x="34" y="1600" type="line" smooth="yes"/>
      <point x="34" y="0" type="line" smooth="yes"/>
      <point x="511" y="0" type="line" smooth="yes"/>
      <point x="511" y="1600" type="line" smooth="yes"/>
    </contour>
  </outline>
</glyph>
<glyph name="Y.wideskinny" format="2">
  <advance width="562"/>
  <outline>
    <contour>
      <point x="43" y="0" type="line"/>
      <point x="526" y="0" type="line" identifier="oOtn61SmRY"/>
      <point x="526" y="1600" type="line" identifier="8OglXgblhr"/>
      <point x="343" y="1600" type="line" identifier="db0bPhBdaU"/>
      <point x="343" y="874" type="line" identifier="MTAeavIVWY"/>
      <point x="221" y="874" type="line" identifier="lggLiivmLt"/>
      <point x="221" y="1600" type="line" identifier="UPaHY3UudR"/>
      <point x="38" y="1600" type="line" identifier="ZnCDQVdtyD"/>
      <point x="38" y="726" type="line" identifier="uqAJBjDIOT"/>
      <point x="343" y="726" type="line" identifier="7JgTtdb0jg"/>
      <point x="343" y="149" type="line"/>
      <point x="43" y="149" type="line"/>
    </contour>
  </outline>
</glyph>
<glyph name="Z.wide" format="2">
  <advance width="553"/>
  <outline>
    <contour>
      <point x="28" y="0" type="line"/>
      <point x="521" y="0" type="line" identifier="pzdvPTirLJ"/>
      <point x="521" y="149" type="line"/>
      <point x="212" y="149" type="line"/>
      <point x="212" y="347" type="line"/>
      <point x="521" y="1388" type="line" identifier="yyb1NCCI5w"/>
      <point x="521" y="1600" type="line" identifier="5FogYRSgkk"/>
      <point x="31" y="1600" type="line" identifier="svlFvrau4c"/>
      <point x="31" y="1451" type="line"/>
      <point x="337" y="1451" type="line"/>
      <point x="337" y="1383" type="line"/>
      <point x="28" y="351" type="line" identifier="teVKnpBcVb"/>
    </contour>
  </outline>
</glyph>
<glyph name="eight.skinnymiddle" format="2">
  <advance width="568"/>
  <outline>
    <contour>
      <point x="312" y="726" type="line"/>
      <point x="355" y="671" type="line"/>
      <point x="355" y="149" type="line"/>
      <point x="214" y="149" type="line"/>
      <point x="214" y="671" type="line"/>
      <point x="256" y="726" type="line"/>
    </contour>
    <contour>
      <point x="477" y="797" type="line"/>
      <point x="477" y="803" type="line"/>
      <point x="535" y="886" type="line"/>
      <point x="535" y="1600" type="line"/>
      <point x="34" y="1600" type="line"/>
      <point x="34" y="886" type="line"/>
      <point x="92" y="803" type="line"/>
      <point x="92" y="797" type="line"/>
      <point x="31" y="711" type="line"/>
      <point x="31" y="0" type="line"/>
      <point x="538" y="0" type="line"/>
      <point x="538" y="711" type="line"/>
    </contour>
    <contour>
      <point x="256" y="874" type="line"/>
      <point x="217" y="926" type="line"/>
      <point x="217" y="1451" type="line"/>
      <point x="352" y="1451" type="line"/>
      <point x="352" y="926" type="line"/>
      <point x="312" y="874" type="line"/>
    </contour>
  </outline>
</glyph>
<glyph name="five.wideskinny" format="2">
  <advance width="536"/>
  <outline>
    <contour>
      <point x="32" y="0" type="line" identifier="09VlJ0BjUX"/>
      <point x="506" y="0" type="line" identifier="EagWihqFM8"/>
      <point x="506" y="874" type="line" identifier="KfNuQA7eZe"/>
      <point x="214" y="874" type="line" identifier="At364YZFEy"/>
      <point x="214" y="1451" type="line" identifier="BcuLfvaQKC"/>
      <point x="506" y="1451" type="line" identifier="3ZUkG35meB"/>
      <point x="506" y="1600" type="line" identifier="SaF9ojRFrW"/>
      <point x="31" y="1600" type="line" identifier="F4sQEYelA8"/>
      <point x="31" y="725" type="line" identifier="3sQ8t8BZ6b"/>
      <point x="323" y="725" type="line" identifier="yiV6OCBLHg"/>
      <point x="323" y="149" type="line" identifier="9kdl9SYsn8"/>
      <point x="32" y="149" type="line" identifier="yZDWuX8LLe"/>
    </contour>
  </outline>
</glyph>
<glyph name="nine.wide" format="2">
  <advance width="563"/>
  <outline>
    <contour>
      <point x="36" y="0" type="line" identifier="oGvEEuxnYv"/>
      <point x="528" y="0" type="line" identifier="xR3pEHbMJx"/>
      <point x="528" y="1600" type="line" identifier="uiw6aBUf4P"/>
      <point x="35" y="1600" type="line" identifier="jtYkxiUX6G"/>
      <point x="35" y="725" type="line" identifier="2G5L37c87I"/>
      <point x="345" y="725" type="line"/>
      <point x="345" y="149" type="line"/>
      <point x="36" y="149" type="line"/>
    </contour>
    <contour>
      <point x="219" y="875" type="line"/>
      <point x="219" y="1451" type="line"/>
      <point x="345" y="1451" type="line"/>
      <point x="345" y="875" type="line"/>
    </contour>
  </outline>
</glyph>
<glyph name="one.narrow" format="2">
  <advance width="348"/>
  <outline>
    <contour>
      <point x="312" y="0" type="line" identifier="5nmxQXofSG"/>
      <point x="312" y="1600" type="line" identifier="4rjIeWbSbx"/>
      <point x="28" y="1600" type="line"/>
      <point x="28" y="1451" type="line"/>
      <point x="129" y="1451" type="line"/>
      <point x="129" y="0" type="line"/>
    </contour>
  </outline>
</glyph>
<glyph name="six.wide" format="2">
  <advance width="562"/>
  <outline>
    <contour>
      <point x="34" y="0" type="line" identifier="uiw6aBUf4P"/>
      <point x="528" y="0" type="line" identifier="jtYkxiUX6G"/>
      <point x="528" y="843" type="line" identifier="2G5L37c87I"/>
      <point x="217" y="843" type="line"/>
      <point x="217" y="1309" type="line"/>
      <point x="250" y="1451" type="line"/>
      <point x="527" y="1451" type="line"/>
      <point x="527" y="1600" type="line" identifier="oGvEEuxnYv"/>
      <point x="78" y="1600" type="line" identifier="xR3pEHbMJx"/>
      <point x="34" y="1311" type="line" identifier="KnMArb0tv8"/>
    </contour>
    <contour>
      <point x="345" y="719" type="line"/>
      <point x="345" y="149" type="line"/>
      <point x="217" y="149" type="line"/>
      <point x="217" y="719" type="line"/>
    </contour>
  </outline>
</glyph>
<glyph name="three.wide" format="2">
  <advance width="570"/>
  <outline>
    <contour>
      <point x="40" y="0" type="line" identifier="O9abUc1nmN"/>
      <point x="534" y="0" type="line" identifier="kMJYMTfXCq"/>
      <point x="534" y="870" type="line" identifier="su2XmdS8e8"/>
      <point x="498" y="870" type="line" identifier="JQaOzDQqlF"/>
      <point x="498" y="1600" type="line" identifier="xg8x2Ki40p"/>
      <point x="37" y="1600" type="line" identifier="pE1XSRiy68"/>
      <point x="37" y="1451" type="line" identifier="7ogBYufWpl"/>
      <point x="315" y="1451" type="line" identifier="RHLvSX2Jv6"/>
      <point x="315" y="871" type="line" identifier="iic1IBkDqp"/>
      <point x="79" y="871" type="line" identifier="lRLJEhXMlO"/>
      <point x="79" y="722" type="line" identifier="8aKgEELrVU"/>
      <point x="351" y="722" type="line" identifier="Dm8zjmbhNr"/>
      <point x="351" y="149" type="line" identifier="xv9CFHiFgB"/>
      <point x="40" y="149" type="line" identifier="YajKQV3MHP"/>
    </contour>
  </outline>
</glyph>
<glyph name="two.wideskinny" format="2">
  <advance width="541"/>
  <outline>
    <contour>
      <point x="26" y="0" type="line"/>
      <point x="509" y="0" type="line" identifier="pzdvPTirLJ"/>
      <point x="509" y="149" type="line"/>
      <point x="209" y="149" type="line"/>
      <point x="209" y="720" type="line"/>
      <point x="508" y="720" type="line" identifier="yyb1NCCI5w"/>
      <point x="508" y="1600" type="line" identifier="5FogYRSgkk"/>
      <point x="30" y="1600" type="line" identifier="svlFvrau4c"/>
      <point x="30" y="1451" type="line"/>
      <point x="325" y="1451" type="line"/>
      <point x="325" y="869" type="line"/>
      <point x="26" y="869" type="line" identifier="teVKnpBcVb"/>
    </contour>
  </outline>
</glyph>
